<svg viewBox="2.053 3.08 25.689 23.634" xmlns="http://www.w3.org/2000/svg" width="25px">
  <path fillrule="evenodd" cliprule="evenodd" d="M 15.662 4.263 C 13.453 4.263 11.662 6.054 11.662 8.263 L 11.662 11.138 L 8.162 11.138 C 5.953 11.138 4.162 12.929 4.162 15.138 L 4.162 18.388 C 4.162 20.597 5.953 22.388 8.162 22.388 L 20.162 22.388 C 22.372 22.388 24.162 20.597 24.162 18.388 L 24.162 8.263 C 24.162 6.054 22.372 4.263 20.162 4.263 L 15.662 4.263 Z" fill="#a4b0be"/>
  <path d="M 10.933 17.742 L 10.08 16.888 L 17.287 16.888 C 18.073 16.888 18.662 16.299 18.662 15.513 L 18.662 13.013 C 18.662 12.939 18.64 12.916 18.637 12.913 C 18.634 12.91 18.611 12.888 18.537 12.888 C 18.463 12.888 18.44 12.91 18.437 12.913 C 18.434 12.916 18.412 12.939 18.412 13.013 L 18.412 15.513 C 18.412 15.814 18.309 16.103 18.094 16.32 C 17.879 16.53 17.588 16.645 17.287 16.638 L 10.08 16.638 L 10.933 15.784 L 11.746 14.972 C 11.78 14.938 11.787 14.908 11.787 14.888 C 11.787 14.868 11.78 14.838 11.746 14.804 C 11.733 14.791 11.718 14.778 11.701 14.767 L 11.699 14.767 L 11.696 14.765 C 11.685 14.764 11.674 14.763 11.662 14.763 C 11.651 14.763 11.64 14.764 11.628 14.765 L 11.624 14.766 L 11.622 14.766 L 11.612 14.773 C 11.6 14.783 11.588 14.793 11.577 14.804 L 9.702 16.679 C 9.668 16.713 9.661 16.743 9.661 16.763 C 9.661 16.783 9.668 16.813 9.702 16.847 L 11.577 18.722 C 11.611 18.756 11.642 18.763 11.661 18.763 C 11.681 18.763 11.711 18.756 11.745 18.722 C 11.779 18.688 11.786 18.658 11.786 18.638 C 11.786 18.618 11.779 18.588 11.745 18.554 L 10.932 17.742 L 10.933 17.742 Z" fill="#000" stroke="#000"/>
</svg>